<svg xmlns="http://www.w3.org/2000/svg" width="217.5" height="66.049" viewBox="0 0 217.5 66.049">
    <defs>
        <style>
            .cls-1{fill:none;stroke:#0063c3;stroke-linecap:round;stroke-width:5px}.cls-2{fill:#0063c3}
        </style>
    </defs>
    <g id="Group_181" data-name="Group 181" transform="translate(-1119 -329)">
        <path id="Line_90" d="M0 1l50-1" class="cls-1" data-name="Line 90" transform="translate(1202.5 391.5)"/>
        <g id="amgen-blue" transform="translate(883.5 329)">
            <g id="Group_95" data-name="Group 95">
                <path id="Path_36" d="M362.8 17.4a12.39 12.39 0 0 0-10.6-5.6 14.1 14.1 0 0 0 0 28.2 13.827 13.827 0 0 0 12.6-8.1h-14.4V20.3h26.4v-18h23.5v11.6H388v6.4h12.3v11.6H388v6h12.3v11.3h-23.5v-17C374 45 363.7 51.6 352.2 51.6c-11.4 0-21-6.8-23.7-18.7v16.5H317V22s-6.7 5.9-6.7 27.4h-11.9c0-21.5-6.7-27.4-6.7-27.4v27.4h-11.6V1.8c13.3 0 22.1 15 24.2 23.8 2.1-8.8 10.9-23.8 24.2-23.8v15.8C330.8 7.1 341.3 0 352.3 0c11.2 0 21.1 8.5 23.2 17.4z" class="cls-2" data-name="Path 36"/>
                <path id="Path_37" d="M425.8 49.4c-1.7-12.9-10.2-22.1-10.2-22.1v22.1h-12.3V2.5c2.7 0 12.5 5.3 22.5 19.7V2.5h12v46.8h-12z" class="cls-2" data-name="Path 37"/>
                <path id="Path_38" d="M250.7 37.6c-.3 1.3-2.4 8.5-3.2 11.8h-12c1.6-5.9 4.7-16 8-22.8 3.2-6.7 7.2-14.1 13.9-19.1 3.1-2.3 9-6.8 20-5.8v47.7h-11.6V37.6zm15.1-10.9V15.6c-3.7 2.6-7.7 7.4-10.1 11.1z" class="cls-2" data-name="Path 38"/>
            </g>
            <path id="Path_39" d="M442.9 5.4a5.05 5.05 0 0 1 10.1 0 5.1 5.1 0 0 1-5 5.1 5.188 5.188 0 0 1-5.1-5.1zm9.2 0a4.1 4.1 0 0 0-8.2 0 4.055 4.055 0 0 0 4.1 4.1 4.118 4.118 0 0 0 4.1-4.1zm-1.6 2.7h-1.2l-1.2-2.3H447v2.3h-1.1V2.7h2.6a2.544 2.544 0 0 1 1.5.3 1.445 1.445 0 0 1 .6 1.4c0 1-.5 1.4-1.5 1.5zM448.6 5c.6 0 1-.1 1-.8s-.8-.7-1.3-.7H447V5z" class="cls-2" data-name="Path 39"/>
        </g>
    </g>
</svg>
